<?xml version="1.0" encoding="utf-8"?>
<!-- Generator: Adobe Illustrator 16.0.4, SVG Export Plug-In . SVG Version: 6.00 Build 0)  -->
<!DOCTYPE svg PUBLIC "-//W3C//DTD SVG 1.1//EN" "http://www.w3.org/Graphics/SVG/1.1/DTD/svg11.dtd">
<svg version="1.1" xmlns="http://www.w3.org/2000/svg" xmlns:xlink="http://www.w3.org/1999/xlink" x="0px" y="0px"
	 width="30.742px" height="28px" viewBox="0 100 30.742 28" enable-background="new 0 100 30.742 28" xml:space="preserve">
<g id="Laag_2" display="none">
	<path display="inline" opacity="0.1" d="M3660.12,1037.366c-2.562-9.017-7.424-16.357-14.678-21.968
		c-7.252-5.615-15.564-8.45-25.033-8.45h-107.014c-9.467,0-17.789,2.835-25.023,8.45c-7.254,5.61-12.115,12.951-14.688,21.968
		l-97.283,344.525h81.801h38.293h140.811h26.539h93.473L3660.12,1037.366z"/>
</g>
<g id="Layer_1">
	<circle fill="#FFFFFF" cx="8.082" cy="108.155" r="4.146"/>
	<circle fill="#FFFFFF" cx="25.745" cy="116.921" r="2.566"/>
	<path fill="#FFFFFF" d="M20.821,126.185l9.921-3.365l-0.183-0.632c0,0-7.291,0.048-8.76-3.458c-1.626-3.883,1.79-8.538,1.79-8.538
		l-0.928-0.41l-3.301,4.453L20.821,126.185z"/>
	<path fill="#FFFFFF" d="M19.218,128l-3.641-28l-1.31,0.141c0,0,2.202,10.437-2.39,13.083c-4.429,2.552-11.36-0.397-11.36-0.397
		L0,114.505l7.28,4.377L6.481,128H19.218z"/>
</g>
</svg>
