<?xml version="1.0" encoding="utf-8"?>
<!-- Generator: Adobe Illustrator 16.0.4, SVG Export Plug-In . SVG Version: 6.00 Build 0)  -->
<!DOCTYPE svg PUBLIC "-//W3C//DTD SVG 1.1//EN" "http://www.w3.org/Graphics/SVG/1.1/DTD/svg11.dtd">
<svg version="1.1" id="Laag_1" xmlns="http://www.w3.org/2000/svg" xmlns:xlink="http://www.w3.org/1999/xlink" x="0px" y="0px"
	 width="42.99px" height="42px" viewBox="0 -14 42.99 42" enable-background="new 0 -14 42.99 42" xml:space="preserve">
<g id="Laag_2" display="none">
	<path display="inline" opacity="0.1" enable-background="new    " d="M3660.12,1037.366c-2.562-9.018-7.424-16.357-14.678-21.968
		c-7.252-5.615-15.563-8.45-25.033-8.45h-107.014c-9.467,0-17.789,2.835-25.022,8.45c-7.254,5.609-12.115,12.95-14.688,21.968
		l-97.283,344.524h81.802h38.293h140.811h26.539h93.474L3660.12,1037.366z"/>
</g>
<g id="Layer_1">
	<path fill="#FFFFFF" d="M31.782-10.592c-0.285-1.011-0.83-1.834-1.643-2.462c-0.812-0.63-1.743-0.947-2.805-0.947H15.35
		c-1.061,0-1.995,0.316-2.807,0.947c-0.813,0.628-1.355,1.45-1.645,2.462L0,27.999h9.164h4.288h0.608l0.936-11.008l-6.924-4.165
		l0.492-1.597c0,0,6.592,2.806,10.805,0.381c4.367-2.52,2.273-12.444,2.273-12.444l1.245-0.134l3.769,28.967h2.57h2.972h10.472
		L31.782-10.592z M16.596,10.642c-2.128,0.463-4.227-0.892-4.689-3.019c-0.462-2.129,0.889-4.229,3.016-4.689
		c2.131-0.462,4.229,0.89,4.691,3.018C20.077,8.078,18.724,10.179,16.596,10.642z M32.876,12.705c1.338,0.173,2.28,1.4,2.104,2.735
		c-0.173,1.338-1.397,2.278-2.735,2.107c-1.338-0.175-2.278-1.4-2.103-2.738C30.313,13.471,31.54,12.528,32.876,12.705z
		 M27.875,23.933l-1.389-11.365l3.141-4.234l0.883,0.388c0,0-3.251,4.428-1.703,8.122c1.396,3.335,8.33,3.287,8.33,3.287
		l0.175,0.603L27.875,23.933z"/>
</g>
</svg>
